<svg xmlns="http://www.w3.org/2000/svg" width="24" height="24" fill="none"><g fill-rule="evenodd" clip-path="url(#a)" clip-rule="evenodd"><path fill="#F90" d="M21.234 21.195C18.752 23.025 15.156 24 12.06 24 7.71 24 3.809 22.395.851 19.723c-.225-.21-.024-.497.255-.333 3.192 1.857 7.144 2.975 11.214 2.975a22.3 22.3 0 0 0 8.554-1.749c.42-.178.773.274.36.579m1.032-1.18c-.315-.405-2.097-.192-2.895-.098-.244.03-.28-.182-.061-.335 1.425-.997 3.745-.71 4.017-.375.271.336-.071 2.67-1.403 3.784-.205.17-.4.08-.3-.148.3-.747.97-2.422.652-2.828"/><path fill="#161616" d="M13.823 10.398c0 1.269.032 2.327-.61 3.454-.524.915-1.35 1.48-2.253 1.48-1.25 0-1.983-.953-1.983-2.36 0-2.774 2.487-3.279 4.846-3.279zm3.285 7.938a.68.68 0 0 1-.77.078c-1.08-.898-1.277-1.315-1.868-2.171-1.787 1.822-3.056 2.367-5.369 2.367-2.743 0-4.873-1.69-4.873-5.075 0-2.643 1.429-4.443 3.472-5.322 1.768-.779 4.238-.915 6.124-1.125v-.413c0-.774.06-1.69-.397-2.359-.394-.6-1.155-.847-1.828-.847-1.242 0-2.345.637-2.615 1.956-.055.3-.27.582-.568.595L5.25 5.666c-.265-.06-.562-.274-.485-.675C5.496 1.155 8.959 0 12.055 0c1.585 0 3.656.422 4.906 1.622 1.584 1.48 1.434 3.453 1.434 5.602V12.3c0 1.525.632 2.194 1.227 3.019.206.3.252.645-.013.865q-1.26 1.067-2.496 2.162l-.005-.009"/></g><defs><clipPath id="a"><path fill="#fff" d="M0 0h24v24H0z"/></clipPath></defs></svg>