<svg xmlns="http://www.w3.org/2000/svg" width="24" height="24" fill="none"><g clip-path="url(#a)"><path fill="#32DE84" fill-rule="evenodd" d="m15.26 2.01.26-.393.254-.387.573-.868a.235.235 0 0 0-.063-.322.23.23 0 0 0-.32.064l-.613.932-.258.391-.262.397a7.5 7.5 0 0 0-2.732-.508 7.5 7.5 0 0 0-2.73.508l-.26-.397-.259-.391-.614-.932a.23.23 0 0 0-.319-.065.234.234 0 0 0-.063.322l.572.869.255.387.259.392c-1.949.919-3.267 2.658-3.267 4.649h12.855c0-1.99-1.319-3.73-3.267-4.648M9.347 4.8a.69.69 0 0 1-.69-.697c0-.384.309-.696.69-.696s.688.312.688.696a.69.69 0 0 1-.688.697m5.508 0a.69.69 0 0 1-.688-.697c0-.384.308-.696.688-.696.382 0 .69.312.69.696a.693.693 0 0 1-.69.697M5.772 7.587h-.099v10.22c0 .81.652 1.47 1.454 1.47h1.05a1.4 1.4 0 0 0-.056.387v2.943c0 .769.617 1.393 1.378 1.393s1.377-.624 1.377-1.393v-2.943q-.002-.201-.054-.386h2.557a1.4 1.4 0 0 0-.054.386v2.943c0 .769.617 1.393 1.377 1.393s1.377-.624 1.377-1.393v-2.943q-.001-.201-.055-.386h1.05c.801 0 1.453-.66 1.453-1.471V7.587zm-2.395 0C2.617 7.587 2 8.211 2 8.981v5.96c0 .77.617 1.394 1.377 1.394s1.377-.624 1.377-1.393V8.98c0-.77-.616-1.394-1.377-1.394m17.446 0c-.76 0-1.377.624-1.377 1.394v5.96c0 .77.616 1.394 1.377 1.394.76 0 1.377-.624 1.377-1.393V8.98c0-.77-.616-1.394-1.377-1.394" clip-rule="evenodd"/></g><defs><clipPath id="a"><path fill="#fff" d="M0 0h24v24H0z"/></clipPath></defs></svg>