<svg xmlns="http://www.w3.org/2000/svg" width="24" height="24" fill="none"><path fill="#161616" fill-rule="evenodd" d="M18.592 12.753c-.03-3.039 2.52-4.498 2.633-4.572-1.434-2.063-3.666-2.345-4.46-2.378-1.9-.189-3.71 1.1-4.673 1.1-.96 0-2.45-1.071-4.025-1.044-2.07.03-3.98 1.185-5.045 3.008C.87 12.54 2.47 17.984 4.567 20.962c1.024 1.457 2.246 3.096 3.85 3.036 1.545-.06 2.128-.983 3.996-.983s2.392.983 4.027.953c1.662-.03 2.715-1.484 3.732-2.947 1.177-1.693 1.66-3.33 1.69-3.415-.037-.016-3.24-1.223-3.273-4.853zm-3.071-8.921c.85-1.017 1.426-2.427 1.27-3.832-1.227.049-2.713.803-3.594 1.817-.79.9-1.48 2.334-1.294 3.714 1.368.103 2.764-.686 3.618-1.7" clip-rule="evenodd"/></svg>